<?xml version="1.0" encoding="iso-8859-1"?>
<!-- Generator: Adobe Illustrator 19.0.0, SVG Export Plug-In . SVG Version: 6.00 Build 0)  -->
<svg xmlns="http://www.w3.org/2000/svg" xmlns:xlink="http://www.w3.org/1999/xlink" version="1.1" id="Capa_1" x="0px" y="0px" viewBox="0 0 512.001 512.001" style="enable-background:new 0 0 512.001 512.001;" xml:space="preserve">
<polygon style="fill:#FFD89D;" points="464.5,7.5 414.5,207.5 464.5,407.5 504.5,407.5 504.5,7.5 "/>
<rect x="7.5" y="7.5" style="fill:#FFEBCE;" width="457" height="400"/>
<polygon style="fill:#FF415D;" points="339.5,407.5 339.5,504.5 369.074,484.5 399.5,504.5 399.5,407.5 "/>
<circle style="fill:#BA1956;" cx="369.5" cy="362.5" r="75"/>
<circle style="fill:#FF415D;" cx="369.5" cy="362.5" r="45"/>
<path d="M504.5,0H7.5C3.358,0,0,3.357,0,7.5v400c0,4.143,3.358,7.5,7.5,7.5h298.408c7.147,8.642,16.029,15.788,26.092,20.947V504.5  c0,2.774,1.532,5.323,3.983,6.624c1.104,0.586,2.312,0.876,3.517,0.876c1.472,0,2.938-0.433,4.202-1.287l25.432-17.199  l26.247,17.254c2.303,1.514,5.253,1.643,7.68,0.333c2.427-1.309,3.939-3.844,3.939-6.601v-68.553  c10.063-5.159,18.945-12.305,26.092-20.947H504.5c4.142,0,7.5-3.357,7.5-7.5V7.5C512,3.357,508.642,0,504.5,0z M392,490.595  l-18.806-12.362c-2.531-1.663-5.813-1.641-8.321,0.055L347,490.374v-48.518c7.158,2.033,14.699,3.144,22.5,3.144  s15.342-1.112,22.5-3.144V490.595z M369.5,430c-37.22,0-67.5-30.28-67.5-67.5s30.28-67.5,67.5-67.5s67.5,30.28,67.5,67.5  S406.72,430,369.5,430z M497,400h-54.053c5.773-11.26,9.053-24,9.053-37.5c0-45.49-37.009-82.5-82.5-82.5S287,317.01,287,362.5  c0,13.5,3.28,26.24,9.053,37.5H15V15h482V400z"/>
<path d="M384.5,200h-257c-4.142,0-7.5,3.357-7.5,7.5s3.358,7.5,7.5,7.5h257c4.142,0,7.5-3.357,7.5-7.5S388.642,200,384.5,200z"/>
<path d="M384.5,240h-257c-4.142,0-7.5,3.357-7.5,7.5s3.358,7.5,7.5,7.5h257c4.142,0,7.5-3.357,7.5-7.5S388.642,240,384.5,240z"/>
<path d="M384.5,160h-257c-4.142,0-7.5,3.357-7.5,7.5s3.358,7.5,7.5,7.5h257c4.142,0,7.5-3.357,7.5-7.5S388.642,160,384.5,160z"/>
<path d="M47.5,330c20.678,0,37.5,16.822,37.5,37.5c0,4.143,3.358,7.5,7.5,7.5h172.122c4.142,0,7.5-3.357,7.5-7.5s-3.358-7.5-7.5-7.5  H99.466C96.167,337.042,77.958,318.832,55,315.534V99.466C77.958,96.168,96.167,77.958,99.466,55h313.068  c3.298,22.958,21.507,41.168,44.466,44.466V317.81c0,4.143,3.358,7.5,7.5,7.5s7.5-3.357,7.5-7.5V92.5c0-4.143-3.358-7.5-7.5-7.5  C443.822,85,427,68.178,427,47.5c0-4.143-3.358-7.5-7.5-7.5h-327c-4.142,0-7.5,3.357-7.5,7.5C85,68.178,68.178,85,47.5,85  c-4.142,0-7.5,3.357-7.5,7.5v230C40,326.643,43.358,330,47.5,330z"/>
<path d="M416.877,339.863c-1.787-3.736-6.265-5.313-10.002-3.528c-3.736,1.788-5.316,6.267-3.528,10.003  c2.424,5.065,3.653,10.503,3.653,16.162c0,20.678-16.822,37.5-37.5,37.5S332,383.178,332,362.5s16.822-37.5,37.5-37.5  c5.66,0,11.097,1.229,16.162,3.652c3.738,1.788,8.215,0.209,10.003-3.527c1.788-3.735,0.209-8.214-3.527-10.002  C385.035,311.724,377.419,310,369.5,310c-28.949,0-52.5,23.552-52.5,52.5s23.551,52.5,52.5,52.5s52.5-23.552,52.5-52.5  C422,354.582,420.276,346.966,416.877,339.863z"/>
<g>
</g>
<g>
</g>
<g>
</g>
<g>
</g>
<g>
</g>
<g>
</g>
<g>
</g>
<g>
</g>
<g>
</g>
<g>
</g>
<g>
</g>
<g>
</g>
<g>
</g>
<g>
</g>
<g>
</g>
</svg>
