<svg xmlns="http://www.w3.org/2000/svg" viewBox="0 0 64 64"><defs><style>.cls-1{fill:#7c828d;}.cls-2{fill:#fc9b28;}.cls-3{fill:#ffd24f;}.cls-4{fill:#b06e53;}.cls-5{fill:#29394a;}</style></defs><title>20-crane</title><g id="_20-crane" data-name="20-crane"><rect class="cls-1" x="9" y="13" width="5" height="6"/><path class="cls-2" d="M54,25v6l-2,2H48l-1-1Z"/><path class="cls-3" d="M54,25l-7,7-1-1V25h8Z"/><rect class="cls-4" x="38" y="49" width="24" height="14"/><polygon class="cls-3" points="34 59 34 63 8 63 8 59 14 59 28 59 34 59"/><polygon class="cls-2" points="28 53 28 59 14 59 14 53 16 53 26 53 28 53"/><polygon class="cls-2" points="9 19 9 21 1 21 1 11 9 11 9 13 9 19"/><polygon class="cls-2" points="23 1 26 13 16 13 19 1 23 1"/><polygon class="cls-3" points="16 13 26 13 28 13 28 19 28 23 26 23 16 23 14 23 14 19 14 13 16 13"/><path class="cls-5" d="M63.707,18.293l-6-6c-.01-.01-.023-.013-.033-.022a.994.994,0,0,0-.215-.143,1.068,1.068,0,0,0-.1-.059c-.008,0-.014-.009-.022-.012l-34-12h0A1,1,0,0,0,23,0H19a.985.985,0,0,0-.7.3L18.293.293,8.586,10H1a1,1,0,0,0-1,1V21a1,1,0,0,0,1,1H9a1,1,0,0,0,1-1V20h3v3a1,1,0,0,0,1,1h1V52H14a1,1,0,0,0-1,1v5H8a1,1,0,0,0-1,1v4a1,1,0,0,0,1,1H34a1,1,0,0,0,1-1V59a1,1,0,0,0-1-1H29V53a1,1,0,0,0-1-1H27V24h1a1,1,0,0,0,1-1V20H49v4H46a1,1,0,0,0-1,1v6a1,1,0,0,0,.293.707l2,2A1,1,0,0,0,48,34h1v.42a2.929,2.929,0,0,0,1.77,2.735,1.993,1.993,0,0,1,1.2,2.214A2,2,0,0,1,48,39H46a4,4,0,0,0,3,3.858V44.28L37.684,48.052l0,.011A.989.989,0,0,0,37,49V63a1,1,0,0,0,1,1H62a1,1,0,0,0,1-1V49a.988.988,0,0,0-.687-.937l0-.011L51,44.28V42.861a4.018,4.018,0,0,0,2.935-3.147,3.975,3.975,0,0,0-2.4-4.406A.95.95,0,0,1,51,34.42V34h1a1,1,0,0,0,.707-.293l2-2A1,1,0,0,0,55,31V25a1,1,0,0,0-1-1H51V20H63a1,1,0,0,0,.707-1.707ZM50,46.054,55.839,48H44.161ZM61,62H39V50H61ZM47,26h4.586L47,30.586Zm4.586,6H48.414L53,27.414v3.172ZM28,12H26.78L24.421,2.562,51.162,12ZM22.219,2l2.5,10H17.28l2.5-10ZM8,20H2V12H8Zm2-2V14h3v4Zm0-6v-.586l7.155-7.155L15.22,12H10Zm7.414,31L21,39.414,24.586,43,21,46.586Zm2.172,5L17,50.586V45.414ZM17,40.586V35.414L19.586,38Zm8,4.828v5.172L22.414,48ZM22.414,38,25,35.414v5.172Zm2.172-5L21,36.586,17.414,33,21,29.414Zm-2.172-5L25,25.414v5.172ZM17,30.586V25.414L19.586,28ZM33,62H9V60H33ZM15,58V54H27v4Zm3.414-6L21,49.414,23.586,52ZM21,26.586,18.414,24h5.172ZM27,22H15V14H27Zm2-8h2.586L29,16.586Zm1.414,4L34,14.414,37.586,18Zm6-4h7.172L40,17.586Zm6,4,3.519-3.519L48.865,18Zm5.722-4h6.45l-3.519,3.519Zm5.278,4L57,14.414,60.586,18Z"/><rect class="cls-5" x="41" y="52" width="2" height="8"/><rect class="cls-5" x="45" y="52" width="2" height="8"/><rect class="cls-5" x="49" y="52" width="2" height="8"/><rect class="cls-5" x="53" y="52" width="2" height="8"/><rect class="cls-5" x="57" y="52" width="2" height="8"/></g></svg>